<svg width="32" height="32" viewBox="0 0 32 32" fill="none" xmlns="http://www.w3.org/2000/svg">
<path d="M26 5H6C5.44772 5 5 5.44772 5 6V26C5 26.5523 5.44772 27 6 27H26C26.5523 27 27 26.5523 27 26V6C27 5.44772 26.5523 5 26 5Z" stroke="white" stroke-width="2.4" stroke-linecap="round" stroke-linejoin="round"/>
<path d="M27 19.9998L21.7071 14.707C21.5196 14.5194 21.2652 14.4141 21 14.4141C20.7348 14.4141 20.4804 14.5194 20.2929 14.707L14.7071 20.2927C14.5196 20.4803 14.2652 20.5856 14 20.5856C13.7348 20.5856 13.4804 20.4803 13.2929 20.2927L10.7071 17.707C10.5196 17.5194 10.2652 17.4141 10 17.4141C9.73478 17.4141 9.48043 17.5194 9.29289 17.707L5 21.9999" stroke="white" stroke-width="2.4" stroke-linecap="round" stroke-linejoin="round"/>
<path d="M12.5 13C13.3284 13 14 12.3284 14 11.5C14 10.6716 13.3284 10 12.5 10C11.6716 10 11 10.6716 11 11.5C11 12.3284 11.6716 13 12.5 13Z" fill="white"/>
</svg>
