<svg width="50" height="50" viewBox="0 0 50 50" fill="none" xmlns="http://www.w3.org/2000/svg">
<path d="M49.0759 11.4078C49.0938 11.474 49.103 11.5423 49.1031 11.611V22.278C49.1031 22.4149 49.067 22.5494 48.9983 22.6679C48.9297 22.7864 48.831 22.8846 48.7122 22.9527L39.7557 28.1074V38.3243C39.7557 38.6024 39.6079 38.859 39.3667 38.999L20.6708 49.7575C20.628 49.7818 20.5813 49.7973 20.5347 49.8139C20.5171 49.8197 20.5006 49.8304 20.4821 49.8353C20.3514 49.8697 20.2141 49.8697 20.0834 49.8353C20.062 49.8294 20.0425 49.8178 20.0221 49.81C19.9793 49.7944 19.9346 49.7808 19.8937 49.7575L1.20177 38.999C1.08302 38.9308 0.984358 38.8326 0.915717 38.7141C0.847076 38.5957 0.810885 38.4612 0.810791 38.3243V6.32312C0.810791 6.25312 0.820517 6.18507 0.838023 6.11896C0.843859 6.0966 0.857475 6.07618 0.865255 6.05382C0.879844 6.01299 0.89346 5.97118 0.914857 5.93327C0.929445 5.90799 0.950842 5.88757 0.968348 5.86424C0.990718 5.83313 1.01114 5.80105 1.0374 5.77383C1.05977 5.75147 1.08895 5.73494 1.11424 5.71549C1.14244 5.69216 1.16773 5.66688 1.19982 5.64841H1.20079L10.5473 0.269184C10.6656 0.201111 10.7998 0.165283 10.9363 0.165283C11.0728 0.165283 11.207 0.201111 11.3253 0.269184L20.6718 5.64841H20.6737C20.7049 5.66786 20.7311 5.69216 20.7593 5.71452C20.7846 5.73397 20.8128 5.75147 20.8352 5.77285C20.8624 5.80105 20.8819 5.83313 20.9052 5.86424C20.9217 5.88757 20.9441 5.90799 20.9577 5.93327C20.9801 5.97216 20.9927 6.01299 21.0083 6.05382C21.0161 6.07618 21.0297 6.0966 21.0355 6.11993C21.0534 6.18618 21.0626 6.2545 21.0628 6.32312V26.3107L28.8512 21.8279V11.61C28.8512 11.5419 28.8609 11.4729 28.8784 11.4078C28.8852 11.3844 28.8978 11.364 28.9056 11.3417C28.9212 11.3008 28.9348 11.259 28.9562 11.2211C28.9708 11.1958 28.9922 11.1754 29.0087 11.1521C29.0321 11.121 29.0515 11.0889 29.0787 11.0617C29.1011 11.0393 29.1293 11.0228 29.1546 11.0033C29.1838 10.98 29.2091 10.9547 29.2402 10.9363H29.2412L38.5886 5.55702C38.7069 5.48886 38.8411 5.45297 38.9776 5.45297C39.1142 5.45297 39.2483 5.48886 39.3667 5.55702L48.7131 10.9363C48.7462 10.9557 48.7715 10.98 48.8007 11.0024C48.825 11.0218 48.8532 11.0393 48.8755 11.0607C48.9028 11.0889 48.9222 11.121 48.9456 11.1521C48.9631 11.1754 48.9845 11.1958 48.9981 11.2211C49.0205 11.259 49.0331 11.3008 49.0487 11.3417C49.0574 11.364 49.0701 11.3844 49.0759 11.4078ZM47.5451 21.8279V12.9575L44.2743 14.8397L39.7557 17.4403V26.3107L47.546 21.8279H47.5451ZM38.1986 37.8742V28.9979L33.7539 31.5354L21.0618 38.7764V47.7363L38.1986 37.8742ZM2.36886 7.66963V37.8742L19.5037 47.7353V38.7774L10.5521 33.7131L10.5492 33.7112L10.5453 33.7092C10.5152 33.6917 10.4899 33.6665 10.4617 33.6451C10.4374 33.6256 10.4092 33.6101 10.3878 33.5887L10.3858 33.5858C10.3605 33.5615 10.343 33.5313 10.3216 33.5041C10.3022 33.4779 10.2788 33.4555 10.2633 33.4283L10.2623 33.4254C10.2448 33.3962 10.2341 33.3612 10.2214 33.3281C10.2088 33.299 10.1923 33.2718 10.1845 33.2406V33.2397C10.1748 33.2027 10.1728 33.1638 10.1689 33.1259C10.165 33.0968 10.1573 33.0676 10.1573 33.0384V12.1525L5.63964 9.55085L2.36886 7.6706V7.66963ZM10.9373 1.84222L3.14984 6.32312L10.9353 10.804L18.7218 6.32215L10.9353 1.84222H10.9373ZM14.9871 29.8068L19.5047 27.2071V7.66963L16.2339 9.55183L11.7153 12.1525V31.69L14.9871 29.8068ZM38.9776 7.13006L31.1912 11.611L38.9776 16.0919L46.7631 11.61L38.9776 7.13006ZM38.1986 17.4403L33.68 14.8397L30.4092 12.9575V21.8279L34.9268 24.4276L38.1986 26.3107V17.4403ZM20.2818 37.4299L31.7028 30.9122L37.4118 27.6553L29.6312 23.1773L20.6728 28.3329L12.508 33.0316L20.2818 37.4299Z" fill="#FF2D20"/>
</svg>
