<svg width="50" height="50" viewBox="0 0 50 50" fill="none" xmlns="http://www.w3.org/2000/svg">
<path d="M50 25.0051C50 21.7107 45.852 18.5886 39.4925 16.6525C40.96 10.2056 40.3078 5.07638 37.4338 3.43424C36.7713 3.04904 35.9967 2.86658 35.1508 2.86658V5.12707C35.6196 5.12707 35.9967 5.2183 36.3127 5.39062C37.6987 6.18128 38.3 9.19188 37.8312 13.0641C37.7191 14.017 37.5357 15.0205 37.3115 16.0443C35.3139 15.5577 33.1329 15.1827 30.8398 14.9394C29.4639 13.0641 28.0371 11.3611 26.6001 9.87104C29.9225 6.79962 33.0412 5.11693 35.161 5.11693V2.85645C32.3583 2.85645 28.6894 4.84324 24.9796 8.28972C21.2699 4.86351 17.6009 2.89699 14.7982 2.89699V5.15748C16.9079 5.15748 20.0367 6.83003 23.3592 9.88118C21.9323 11.3713 20.5055 13.0641 19.15 14.9394C16.8467 15.1827 14.6657 15.5577 12.6682 16.0544C12.4338 15.0408 12.2605 14.0575 12.1382 13.1148C11.6592 9.24257 12.2503 6.23197 13.6262 5.43117C13.9319 5.24871 14.3294 5.16761 14.7982 5.16761V2.90713C13.9421 2.90713 13.1675 3.08959 12.4949 3.47478C9.63106 5.11693 8.98899 10.236 10.4668 16.6626C4.1276 18.6089 0 21.7208 0 25.0051C0 28.2996 4.14798 31.4217 10.5075 33.3578C9.03995 39.8047 9.69221 44.9339 12.5662 46.576C13.2287 46.9612 14.0033 47.1437 14.8594 47.1437C17.662 47.1437 21.331 45.1569 25.0408 41.7104C28.7505 45.1366 32.4195 47.1032 35.2222 47.1032C36.0783 47.1032 36.8528 46.9207 37.5255 46.5355C40.3893 44.8934 41.0314 39.7743 39.5536 33.3476C45.8724 31.4115 50 28.2894 50 25.0051ZM36.7305 18.244C36.3534 19.5516 35.8846 20.8998 35.3547 22.248C34.9368 21.437 34.4986 20.6261 34.0196 19.8152C33.5508 19.0042 33.0514 18.2136 32.552 17.4432C33.9992 17.656 35.3954 17.9196 36.7305 18.244ZM32.0628 29.0395C31.2678 30.408 30.4525 31.7055 29.6066 32.9118C28.0881 33.0435 26.5491 33.1145 25 33.1145C23.4611 33.1145 21.9221 33.0435 20.4138 32.9219C19.5679 31.7156 18.7424 30.4283 17.9474 29.07C17.1728 27.7421 16.4696 26.3939 15.8276 25.0356C16.4594 23.6772 17.1729 22.3189 17.9372 20.991C18.7322 19.6226 19.5475 18.3251 20.3934 17.1188C21.9119 16.987 23.4509 16.9161 25 16.9161C26.5389 16.9161 28.0779 16.987 29.5862 17.1087C30.4321 18.3149 31.2576 19.6023 32.0526 20.9606C32.8272 22.2885 33.5304 23.6367 34.1724 24.995C33.5304 26.3533 32.8271 27.7116 32.0628 29.0395ZM35.3547 27.7218C35.905 29.0801 36.3738 30.4384 36.7611 31.7562C35.426 32.0806 34.0196 32.3543 32.5622 32.5671C33.0616 31.7866 33.5609 30.9858 34.0298 30.1647C34.4986 29.3538 34.9368 28.5327 35.3547 27.7218ZM25.0204 38.5376C24.0726 37.5645 23.1247 36.4799 22.1871 35.2939C23.1044 35.3344 24.042 35.3649 24.9898 35.3649C25.9478 35.3649 26.8956 35.3446 27.8231 35.2939C26.9058 36.4799 25.958 37.5645 25.0204 38.5376ZM17.4378 32.5671C15.9906 32.3543 14.5944 32.0907 13.2593 31.7663C13.6364 30.4587 14.1052 29.1105 14.6351 27.7623C15.053 28.5733 15.4912 29.3842 15.9702 30.1951C16.4492 31.0061 16.9384 31.7967 17.4378 32.5671ZM24.9694 11.4726C25.9172 12.4458 26.8651 13.5304 27.8027 14.7164C26.8854 14.6758 25.9478 14.6454 25 14.6454C24.042 14.6454 23.0942 14.6657 22.1667 14.7164C23.084 13.5304 24.0318 12.4458 24.9694 11.4726ZM17.4276 17.4432C16.9283 18.2237 16.4289 19.0245 15.96 19.8456C15.4912 20.6565 15.053 21.4674 14.6351 22.2784C14.0848 20.9201 13.616 19.5617 13.2287 18.244C14.5638 17.9297 15.9702 17.656 17.4276 17.4432ZM8.20424 30.1343C4.59641 28.6037 2.26254 26.5966 2.26254 25.0051C2.26254 23.4137 4.59641 21.3965 8.20424 19.876C9.08072 19.5009 10.0387 19.1664 11.0273 18.8522C11.6082 20.839 12.3726 22.9068 13.3204 25.0254C12.3828 27.1339 11.6286 29.1916 11.0579 31.1683C10.0489 30.854 9.09091 30.5094 8.20424 30.1343ZM13.6873 44.6197C12.3013 43.829 11.7 40.8184 12.1688 36.9462C12.2809 35.9933 12.4643 34.9898 12.6885 33.966C14.6861 34.4525 16.8671 34.8276 19.1602 35.0709C20.5361 36.9462 21.9629 38.6491 23.3999 40.1392C20.0775 43.2107 16.9588 44.8934 14.839 44.8934C14.3804 44.8832 13.9931 44.792 13.6873 44.6197ZM37.8618 36.8955C38.3408 40.7677 37.7497 43.7783 36.3738 44.5791C36.0681 44.7616 35.6706 44.8427 35.2018 44.8427C33.0921 44.8427 29.9633 43.1701 26.6409 40.119C28.0677 38.6289 29.4945 36.936 30.85 35.0608C33.1533 34.8175 35.3343 34.4424 37.3318 33.9457C37.5662 34.9695 37.7497 35.9528 37.8618 36.8955ZM41.7856 30.1343C40.9091 30.5094 39.9511 30.8439 38.9625 31.1581C38.3816 29.1713 37.6172 27.1034 36.6694 24.9849C37.607 22.8764 38.3612 20.8187 38.9319 18.842C39.9409 19.1563 40.8989 19.5009 41.7958 19.876C45.4036 21.4066 47.7375 23.4137 47.7375 25.0051C47.7273 26.5966 45.3934 28.6138 41.7856 30.1343Z" fill="#61DAFB"/>
<path d="M24.9898 29.6378C27.5621 29.6378 29.6474 27.5637 29.6474 25.0053C29.6474 22.4468 27.5621 20.3728 24.9898 20.3728C22.4175 20.3728 20.3323 22.4468 20.3323 25.0053C20.3323 27.5637 22.4175 29.6378 24.9898 29.6378Z" fill="#61DAFB"/>
</svg>
