<svg width="50" height="50" viewBox="0 0 50 50" fill="none" xmlns="http://www.w3.org/2000/svg">
<g clip-path="url(#clip0)">
<path d="M43.0272 27.5471C41.2792 27.5567 39.7655 27.9681 38.496 28.5806C38.0272 27.6716 37.5585 26.8773 37.4805 26.2842C37.3926 25.5952 37.2851 25.1741 37.3926 24.3514C37.4999 23.5284 37.9882 22.3611 37.9882 22.2654C37.9783 22.1793 37.8806 21.7583 36.8749 21.7487C35.8691 21.7391 34.9999 21.9401 34.9022 22.1984C34.8046 22.4567 34.6093 23.05 34.4823 23.6623C34.3065 24.5618 32.4706 27.748 31.4257 29.4225C31.0839 28.7718 30.7909 28.1977 30.7322 27.7384C30.6444 27.0495 30.5369 26.6284 30.6444 25.8057C30.7519 24.9827 31.2401 23.8154 31.2401 23.7198C31.2304 23.6336 31.1327 23.2126 30.127 23.2031C29.121 23.1935 28.252 23.3944 28.1543 23.6528C28.0566 23.9111 27.9492 24.5235 27.7344 25.1167C27.5292 25.71 25.0878 31.03 24.453 32.4174C24.1308 33.1254 23.8477 33.6899 23.6425 34.0727C23.4374 34.4554 23.6327 34.1014 23.6132 34.1397C23.4374 34.465 23.3398 34.6468 23.3398 34.6468V34.6564C23.203 34.8956 23.0565 35.1252 22.9881 35.1252C22.9393 35.1252 22.8416 34.4841 23.0076 33.6039C23.369 31.7571 24.2479 28.8772 24.2382 28.7719C24.2382 28.7241 24.4041 28.2169 23.6717 27.9586C22.9588 27.7003 22.705 28.1308 22.6463 28.1308C22.5877 28.1308 22.5389 28.2839 22.5389 28.2839C22.5389 28.2839 23.3299 25.0404 21.0252 25.0404C19.5799 25.0404 17.5877 26.5809 16.6014 27.9874C15.9764 28.3223 14.6483 29.0303 13.242 29.7863C12.7049 30.0733 12.1483 30.3795 11.6209 30.657L11.5136 30.542C8.72063 27.6236 3.55463 25.5569 3.76947 21.6339C3.84759 20.2082 4.35541 16.4478 13.6914 11.8933C21.3379 8.16168 27.4609 9.18549 28.5253 11.4627C30.039 14.716 25.2538 20.7631 17.3047 21.6339C14.2774 21.9688 12.6855 20.8206 12.2852 20.39C11.8653 19.9403 11.8067 19.9211 11.6504 20.0073C11.3965 20.1412 11.5528 20.5431 11.6504 20.7823C11.8848 21.3851 12.8614 22.4567 14.5215 22.9926C15.9765 23.4614 19.5313 23.7198 23.8281 22.0931C28.6426 20.2656 32.4023 15.1944 31.2988 10.9556C30.1758 6.64032 22.8711 5.2242 15.9668 7.62585C11.8554 9.0611 7.40228 11.3001 4.19916 14.2376C0.390567 17.7204 -0.214901 20.7631 0.0390053 22.0262C0.927773 26.5328 7.26556 29.4703 9.80462 31.6423C9.67766 31.7092 9.56048 31.7762 9.45305 31.8337C8.18353 32.446 3.34955 34.9243 2.13861 37.5459C0.771426 40.5121 2.35346 42.6459 3.40814 42.9329C6.66986 43.8228 10.0097 42.2249 11.8163 39.5936C13.6131 36.9623 13.3984 33.5464 12.5683 31.9868L12.5389 31.9294L13.535 31.3553C14.1796 30.9821 14.8144 30.6376 15.3709 30.3409C15.0585 31.1734 14.8338 32.1589 14.7167 33.5942C14.58 35.2783 15.2831 37.4598 16.2109 38.3209C16.621 38.694 17.1093 38.7036 17.412 38.7036C18.4862 38.7036 18.9745 37.8328 19.5116 36.79C20.1757 35.5174 20.7616 34.0439 20.7616 34.0439C20.7616 34.0439 20.0292 38.0339 22.0312 38.0339C22.7636 38.0339 23.496 37.1057 23.828 36.6273V36.6369C23.828 36.6369 23.8476 36.6082 23.8866 36.5412C23.9276 36.4818 23.9667 36.4212 24.0038 36.3595V36.3404C24.2968 35.8428 24.9511 34.7042 25.9276 32.8192C27.1873 30.3889 28.3983 27.3461 28.3983 27.3461C28.3983 27.3461 28.5155 28.0925 28.8769 29.3172C29.0916 30.0445 29.5603 30.8386 29.9217 31.6136C29.6287 32.0155 29.4529 32.2452 29.4529 32.2452L29.4627 32.2548C29.2284 32.561 28.9646 32.8864 28.6913 33.2116C27.6952 34.379 26.5038 35.7091 26.3476 36.0918C26.162 36.5414 26.2011 36.8763 26.5624 37.1443C26.8261 37.3357 27.2948 37.3738 27.7929 37.3357C28.6913 37.2782 29.3163 37.0582 29.6288 36.9241C30.1171 36.7519 30.6737 36.4936 31.2108 36.1108C32.1874 35.4029 32.7831 34.3982 32.7245 33.0586C32.6952 32.3219 32.4511 31.5947 32.1483 30.9058C32.2362 30.7814 32.3242 30.6569 32.412 30.523C33.955 28.3126 35.1464 25.8824 35.1464 25.8824C35.1464 25.8824 35.2636 26.6287 35.6249 27.8535C35.8103 28.4754 36.1815 29.1548 36.5136 29.8246C35.0682 30.9824 34.16 32.322 33.8475 33.2022C33.2714 34.8289 33.7206 35.5656 34.5702 35.7379C34.951 35.8144 35.4979 35.6422 35.908 35.4699C36.4158 35.3073 37.031 35.0297 37.5975 34.6184C38.5741 33.9103 39.5116 32.9248 39.4628 31.5948C39.4335 30.9824 39.2675 30.3796 39.0429 29.8055C40.2733 29.3079 41.865 29.0209 43.8866 29.2601C48.2323 29.7577 49.0917 32.4176 48.9258 33.5276C48.7597 34.6376 47.8515 35.2499 47.5487 35.4412C47.246 35.623 47.1483 35.6901 47.1776 35.824C47.2167 36.025 47.3534 36.0153 47.6171 35.9772C47.9784 35.9196 49.9022 35.0682 49.9803 33.0206C50.0975 30.389 47.5487 27.5185 43.0272 27.5471ZM9.51165 38.6176C8.0761 40.1581 6.05462 40.7418 5.19525 40.2442C4.26751 39.718 4.62874 37.4503 6.39642 35.8141C7.47063 34.819 8.86712 33.9004 9.78508 33.3359C9.99016 33.2115 10.3027 33.0298 10.6738 32.8097C10.7323 32.7715 10.7714 32.7522 10.7714 32.7522C10.8398 32.714 10.9179 32.6661 10.996 32.6183C11.6503 34.953 11.0253 37.0006 9.51165 38.6176ZM20.0097 31.6232C19.5116 32.8192 18.4569 35.8907 17.8222 35.7184C17.2752 35.5749 16.9433 33.2498 17.7147 30.9534C18.1053 29.7955 18.9354 28.4178 19.4236 27.8819C20.2148 27.0207 21.074 26.7337 21.289 27.0877C21.5429 27.5471 20.3222 30.8769 20.0097 31.6232ZM28.6718 35.6802C28.4569 35.7855 28.2616 35.862 28.1737 35.8046C28.1054 35.7664 28.2615 35.6228 28.2615 35.6228C28.2615 35.6228 29.3455 34.4842 29.7752 33.958C30.0193 33.6519 30.3123 33.2978 30.6248 32.8959V33.0107C30.6249 34.3884 29.2772 35.307 28.6718 35.6802ZM35.3514 34.1875C35.1951 34.0727 35.2147 33.7186 35.742 32.6087C35.9472 32.1686 36.4158 31.4318 37.2264 30.7333C37.324 31.0204 37.3827 31.2978 37.3728 31.5562C37.3632 33.2785 36.1132 33.9196 35.3514 34.1875Z" fill="#CF649A"/>
</g>
<defs>
<clipPath id="clip0">
<rect width="50" height="50" fill="white"/>
</clipPath>
</defs>
</svg>
