<svg width="22" height="14" viewBox="0 0 22 14" fill="none" xmlns="http://www.w3.org/2000/svg">
<path d="M9.05097 6.328C9.50751 6.0942 9.85266 5.8338 10.0892 5.5524C10.51 5.0456 10.7176 4.3736 10.7176 3.5406C10.7176 2.73 10.51 2.037 10.0947 1.456C9.40163 0.5096 8.22866 0.0252 6.57028 0H0V13.6542H6.12612C6.81642 13.6542 7.45585 13.594 8.04714 13.4708C8.63844 13.3462 9.14998 13.118 9.58314 12.7848C9.96817 12.495 10.2899 12.1352 10.5457 11.711C10.95 11.0698 11.1521 10.3432 11.1521 9.53399C11.1521 8.75 10.9748 8.0822 10.6227 7.5334C10.2666 6.9846 9.74403 6.5828 9.05097 6.328ZM2.71034 2.3716H5.66958C6.32001 2.3716 6.8563 2.443 7.27708 2.5844C7.76387 2.7902 8.00727 3.2088 8.00727 3.8472C8.00727 4.4198 7.82163 4.8202 7.45447 5.0456C7.08457 5.271 6.60465 5.3844 6.01611 5.3844H2.71034V2.3716ZM7.38984 11.0446C7.06257 11.2056 6.6019 11.2854 6.01198 11.2854H2.71034V7.644H6.05736C6.64041 7.6482 7.09419 7.7266 7.41872 7.8736C7.99627 8.1396 8.28366 8.6268 8.28366 9.3394C8.28366 10.1794 7.98664 10.745 7.38984 11.0446Z" fill="#29D882"/>
<path d="M19.8858 0.637001H14.0594V2.3366H19.8858V0.637001Z" fill="#29D882"/>
<path d="M21.9094 7.3444C21.7884 6.5534 21.5216 5.8576 21.1063 5.257C20.6512 4.5766 20.0736 4.0782 19.3709 3.7632C18.671 3.4468 17.8831 3.2886 17.0058 3.29C15.533 3.29 14.3367 3.759 13.4112 4.69C12.4885 5.6238 12.0265 6.9664 12.0265 8.7164C12.0265 10.5826 12.5367 11.9308 13.5625 12.7582C14.5842 13.587 15.764 14 17.1034 14C18.7246 14 19.9856 13.5086 20.8863 12.5286C21.4625 11.9098 21.7884 11.3008 21.8599 10.703H19.1757C19.0203 10.9984 18.8401 11.2294 18.6339 11.3974C18.2599 11.7054 17.7731 11.8594 17.1763 11.8594C16.6083 11.8594 16.1271 11.732 15.7255 11.4786C15.0627 11.0726 14.7162 10.3614 14.6722 9.3492H21.9974C22.0084 8.477 21.9809 7.8064 21.9094 7.3444ZM14.7382 7.6062C14.8345 6.9496 15.0682 6.4288 15.4395 6.0438C15.8108 5.6602 16.3361 5.467 17.0085 5.4656C17.6287 5.4656 18.1471 5.6462 18.5693 6.0088C18.9859 6.3742 19.2211 6.9048 19.2692 7.6062H14.7382Z" fill="#29D882"/>
</svg>
