<svg width="115" height="41" viewBox="0 0 115 41" fill="none" xmlns="http://www.w3.org/2000/svg">
    <rect width="41" height="41" rx="20.5" fill="#00AAFF" />
    <path
        d="M27.5469 13.4531H13.4531C13.1134 13.4535 12.7878 13.5886 12.5476 13.8288C12.3074 14.069 12.1723 14.3947 12.1719 14.7344V26.9063C12.1719 27.0155 12.1998 27.1228 12.253 27.2182C12.3061 27.3136 12.3828 27.3938 12.4757 27.4512C12.5686 27.5086 12.6746 27.5413 12.7837 27.5462C12.8928 27.5511 13.0014 27.5281 13.099 27.4792L15.375 26.3412L17.651 27.4792C17.7399 27.5237 17.838 27.5469 17.9375 27.5469C18.037 27.5469 18.1351 27.5237 18.224 27.4792L20.5 26.3412L22.776 27.4792C22.8649 27.5237 22.963 27.5469 23.0625 27.5469C23.162 27.5469 23.2601 27.5237 23.349 27.4792L25.625 26.3412L27.901 27.4792C27.9986 27.5281 28.1072 27.5511 28.2163 27.5462C28.3254 27.5413 28.4314 27.5086 28.5243 27.4512C28.6172 27.3938 28.6939 27.3136 28.747 27.2182C28.8002 27.1228 28.8281 27.0155 28.8281 26.9063V14.7344C28.8277 14.3947 28.6926 14.069 28.4524 13.8288C28.2122 13.5886 27.8866 13.4535 27.5469 13.4531ZM24.6641 21.7813H16.3359C16.166 21.7813 16.0031 21.7138 15.8829 21.5936C15.7628 21.4735 15.6953 21.3105 15.6953 21.1406C15.6953 20.9707 15.7628 20.8078 15.8829 20.6876C16.0031 20.5675 16.166 20.5 16.3359 20.5H24.6641C24.834 20.5 24.9969 20.5675 25.1171 20.6876C25.2372 20.8078 25.3047 20.9707 25.3047 21.1406C25.3047 21.3105 25.2372 21.4735 25.1171 21.5936C24.9969 21.7138 24.834 21.7813 24.6641 21.7813ZM24.6641 19.2188H16.3359C16.166 19.2188 16.0031 19.1513 15.8829 19.0311C15.7628 18.911 15.6953 18.748 15.6953 18.5781C15.6953 18.4082 15.7628 18.2453 15.8829 18.1251C16.0031 18.005 16.166 17.9375 16.3359 17.9375H24.6641C24.834 17.9375 24.9969 18.005 25.1171 18.1251C25.2372 18.2453 25.3047 18.4082 25.3047 18.5781C25.3047 18.748 25.2372 18.911 25.1171 19.0311C24.9969 19.1513 24.834 19.2188 24.6641 19.2188Z"
        fill="white" />
    <path
        d="M57.4968 28.2392C55.8705 28.2392 54.4434 27.8804 53.2157 27.1629C52.0039 26.4454 51.0632 25.4409 50.3936 24.1494C49.7239 22.842 49.3891 21.3113 49.3891 19.5574C49.3891 17.7876 49.7239 16.2569 50.3936 14.9654C51.0632 13.6739 52.0039 12.6774 53.2157 11.9758C54.4275 11.2583 55.8545 10.8996 57.4968 10.8996C59.1391 10.8996 60.5661 11.2583 61.7779 11.9758C62.9897 12.6774 63.9304 13.6739 64.6001 14.9654C65.2697 16.2569 65.6046 17.7796 65.6046 19.5335C65.6046 21.3033 65.2697 22.842 64.6001 24.1494C63.9304 25.4409 62.9897 26.4454 61.7779 27.1629C60.5661 27.8804 59.1391 28.2392 57.4968 28.2392ZM57.4968 25.6083C59.0434 25.6083 60.2472 25.0742 61.1082 24.0059C61.9692 22.9376 62.3997 21.4548 62.3997 19.5574C62.3997 17.6441 61.9692 16.1612 61.1082 15.1089C60.2632 14.0566 59.0594 13.5304 57.4968 13.5304C55.9502 13.5304 54.7464 14.0566 53.8854 15.1089C53.0244 16.1612 52.5939 17.6441 52.5939 19.5574C52.5939 21.4548 53.0244 22.9376 53.8854 24.0059C54.7464 25.0742 55.9502 25.6083 57.4968 25.6083ZM68.4305 28V16.3047H71.3483V18.1224C71.7469 17.4527 72.281 16.9425 72.9507 16.5917C73.6363 16.241 74.4017 16.0656 75.2467 16.0656C78.0051 16.0656 79.3843 17.668 79.3843 20.8728V28H76.3947V21.0163C76.3947 20.1075 76.2193 19.4458 75.8685 19.0312C75.5337 18.6167 75.0075 18.4094 74.29 18.4094C73.4131 18.4094 72.7115 18.6884 72.1854 19.2465C71.6752 19.7886 71.42 20.5141 71.42 21.4229V28H68.4305ZM88.1847 28.2392C86.8613 28.2392 85.7213 27.992 84.7646 27.4977C83.8079 27.0035 83.0665 26.3019 82.5404 25.3931C82.0301 24.4842 81.775 23.408 81.775 22.1643C81.775 20.9526 82.0222 19.8922 82.5164 18.9834C83.0267 18.0746 83.7202 17.3651 84.5972 16.8548C85.4901 16.3287 86.5026 16.0656 87.6346 16.0656C89.2928 16.0656 90.6003 16.5917 91.5569 17.6441C92.5296 18.6964 93.0159 20.1314 93.0159 21.9491V22.834H84.645C84.8682 24.9227 86.0641 25.9671 88.2325 25.9671C88.8862 25.9671 89.54 25.8714 90.1937 25.6801C90.8474 25.4728 91.4453 25.1539 91.9874 24.7234L92.8245 26.7324C92.2665 27.1948 91.5649 27.5615 90.7199 27.8326C89.8748 28.1036 89.0297 28.2392 88.1847 28.2392ZM87.7542 18.0985C86.8772 18.0985 86.1677 18.3696 85.6256 18.9117C85.0835 19.4538 84.7566 20.1872 84.645 21.112H90.5285C90.4647 20.1394 90.1937 19.398 89.7154 18.8877C89.253 18.3616 88.5992 18.0985 87.7542 18.0985ZM99.6645 28.2392C98.676 28.2392 97.7512 28.1196 96.8902 27.8804C96.0292 27.6412 95.3117 27.2984 94.7377 26.852L95.503 24.8908C96.0929 25.2894 96.7546 25.6004 97.4881 25.8236C98.2215 26.0309 98.955 26.1345 99.6884 26.1345C100.454 26.1345 101.02 26.0069 101.387 25.7518C101.769 25.4808 101.961 25.13 101.961 24.6995C101.961 24.0298 101.466 23.5993 100.478 23.408L98.086 22.9536C96.0611 22.5709 95.0486 21.5186 95.0486 19.7966C95.0486 19.0312 95.2559 18.3696 95.6704 17.8115C96.1009 17.2534 96.6909 16.8229 97.4403 16.52C98.1896 16.2171 99.0506 16.0656 100.023 16.0656C100.852 16.0656 101.65 16.1852 102.415 16.4243C103.18 16.6476 103.834 16.9904 104.376 17.4527L103.563 19.4139C103.101 19.0312 102.542 18.7283 101.889 18.5051C101.251 18.2819 100.637 18.1702 100.047 18.1702C99.2659 18.1702 98.6839 18.3058 98.3013 18.5768C97.9345 18.8479 97.7512 19.2066 97.7512 19.6531C97.7512 20.3546 98.2056 20.7851 99.1144 20.9446L101.506 21.399C102.542 21.5903 103.324 21.9411 103.85 22.4513C104.392 22.9616 104.663 23.6472 104.663 24.5082C104.663 25.6721 104.209 26.5889 103.3 27.2586C102.391 27.9123 101.179 28.2392 99.6645 28.2392ZM112.302 28.2392C109.209 28.2392 107.662 26.7085 107.662 23.6472V18.5529H105.414V16.3047H107.662V12.8129H110.652V16.3047H114.191V18.5529H110.652V23.4797C110.652 24.2451 110.819 24.8191 111.154 25.2017C111.489 25.5844 112.031 25.7757 112.78 25.7757C113.004 25.7757 113.235 25.7518 113.474 25.704C113.713 25.6402 113.96 25.5764 114.215 25.5127L114.67 27.713C114.383 27.8724 114.016 28 113.57 28.0957C113.139 28.1913 112.717 28.2392 112.302 28.2392Z"
        fill="#191F33" />
</svg>
