<svg width="32" height="32" viewBox="0 0 32 32" fill="none" xmlns="http://www.w3.org/2000/svg">
<path d="M28.5185 15.1473L10.5215 4.14868C10.3699 4.05604 10.1963 4.00545 10.0187 4.00213C9.8411 3.9988 9.6658 4.04285 9.51085 4.12975C9.3559 4.21665 9.2269 4.34326 9.13711 4.49656C9.04733 4.64985 9 4.8243 9 5.00195V26.9991C9 27.1768 9.04733 27.3512 9.13711 27.5045C9.2269 27.6578 9.3559 27.7844 9.51085 27.8713C9.6658 27.9582 9.8411 28.0023 10.0187 27.9989C10.1963 27.9956 10.3699 27.945 10.5215 27.8524L28.5185 16.8538C28.6647 16.7645 28.7855 16.6391 28.8693 16.4897C28.9531 16.3403 28.9971 16.1718 28.9971 16.0005C28.9971 15.8292 28.9531 15.6608 28.8693 15.5114C28.7855 15.362 28.6647 15.2366 28.5185 15.1473Z" fill="white"/>
</svg>
