<svg width="25" height="24" viewBox="0 0 25 24" fill="none" xmlns="http://www.w3.org/2000/svg">
<path d="M9.16965 11.7024C9.94762 13.2929 11.2369 14.5763 12.8309 15.347C12.9475 15.4023 13.0765 15.4262 13.2052 15.4165C13.3339 15.4067 13.4579 15.3636 13.5648 15.2915L15.9119 13.7264C16.0157 13.6572 16.1352 13.6149 16.2594 13.6035C16.3837 13.5921 16.5088 13.6119 16.6235 13.661L21.0144 15.5428C21.1636 15.6062 21.2881 15.7163 21.3693 15.8566C21.4504 15.9969 21.4838 16.1598 21.4643 16.3207C21.3255 17.4067 20.7956 18.4049 19.9739 19.1283C19.1521 19.8518 18.0948 20.2509 17 20.2509C13.6185 20.2509 10.3755 18.9076 7.98439 16.5166C5.5933 14.1255 4.25 10.8825 4.25 7.50095C4.25006 6.40611 4.64918 5.34883 5.37264 4.52708C6.0961 3.70533 7.09428 3.17545 8.18028 3.03667C8.34117 3.0172 8.50403 3.05054 8.64432 3.13167C8.78461 3.21281 8.89473 3.33734 8.9581 3.4865L10.8416 7.8813C10.8903 7.99497 10.9101 8.11893 10.8994 8.24214C10.8886 8.36534 10.8475 8.48397 10.7798 8.58745L9.22011 10.9705C9.14912 11.0778 9.10716 11.2015 9.09831 11.3298C9.08947 11.4581 9.11405 11.5864 9.16965 11.7024Z" fill="#CCEEFF" stroke="#00AAFF" stroke-width="1.6" stroke-linecap="round" stroke-linejoin="round"/>
</svg>
